<!-- icon666.com - MILLIONS OF FREE VECTOR ICONS --><svg viewBox="0 0 512 512.00076" xmlns="http://www.w3.org/2000/svg"><path d="m284.96875 282.054688c-1.699219 0-3.414062-.289063-5.074219-.890626-5.953125-2.140624-9.921875-7.785156-9.921875-14.109374v-110.613282h-42.949218c-5.808594 0-11.09375-3.351562-13.570313-8.609375-2.472656-5.257812-1.691406-11.46875 2.011719-15.945312l104.53125-126.441407c4.027344-4.875 10.683594-6.699218 16.636718-4.558593 5.953126 2.144531 9.921876 7.789062 9.921876 14.113281v110.613281h42.949218c5.808594 0 11.09375 3.355469 13.570313 8.609375 2.472656 5.257813 1.691406 11.46875-2.011719 15.945313l-104.53125 126.441406c-2.90625 3.515625-7.175781 5.445313-11.5625 5.445313zm0 0" fill="#ffd222"></path><path d="m471.21875 364.53125-179.035156 46.667969c-2.449219.636719-4.964844.964843-7.496094.96875-14.308594.023437-41.324219.019531-84.683594.007812-8.273437 0-14.976562-6.710937-14.976562-14.984375 0-8.273437 6.707031-14.984375 14.984375-14.984375h77.824219c16.570312 0 30-13.429687 30-29.996093 0-16.566407-13.429688-29.996094-30-29.996094h-165.46875v168.398437c29.429687.003907 157.671874.027344 185.554687-.035156 3.523437-.007813 7.011719-.636719 10.316406-1.859375l180.792969-66.828125c39.945312-15.5 22.3125-67.996094-17.8125-57.359375zm0 0" fill="#fdd1a3" fill-rule="evenodd"></path><path d="m101.015625 512h-86.015625c-8.285156 0-15-6.714844-15-15v-185.855469c0-8.285156 6.714844-15 15-15h86.015625c8.28125 0 14.996094 6.714844 14.996094 15v185.855469c0 8.285156-6.714844 15-14.996094 15zm0 0" fill="#cafa5c"></path><path d="m403.074219 134.222656c-2.476563-5.257812-7.761719-8.609375-13.570313-8.609375h-42.949218v-110.613281c0-6.324219-3.96875-11.972656-9.921876-14.113281-5.953124-2.140625-12.605468-.320313-16.636718 4.554687l-12.222656 14.78125v242.785156l93.289062-112.839843c3.703125-4.476563 4.484375-10.691407 2.011719-15.945313zm0 0" fill="#ecbd00"></path><g fill="#ffbb85" fill-rule="evenodd"><path d="m471.21875 364.53125-163.445312 42.605469v81.742187c.15625-.050781.3125-.101562.464843-.160156l180.789063-66.828125c39.949218-15.5 22.316406-67.996094-17.808594-57.359375zm0 0"></path><path d="m307.835938 352.210938c0-.613282-.023438-1.21875-.058594-1.820313v3.640625c.035156-.601562.058594-1.207031.058594-1.820312zm0 0"></path></g></svg>