<!-- icon666.com - MILLIONS OF FREE VECTOR ICONS --><svg version="1.1" id="Capa_1" xmlns="http://www.w3.org/2000/svg" xmlns:xlink="http://www.w3.org/1999/xlink" x="0px" y="0px" viewBox="0 0 512 512" style="enable-background:new 0 0 512 512;" xml:space="preserve"><path style="fill:#5C5E70;" d="M512,256c0,2.738-0.042,5.475-0.125,8.192c-0.7,22.225-4.232,43.739-10.25,64.188 c-22.841,77.625-81.471,139.922-156.808,167.79c-6.823,2.529-13.782,4.775-20.867,6.708C302.31,508.823,279.531,512,256,512 c-96.329,0-180.224-53.196-223.911-131.824c-4.786-8.589-9.07-17.481-12.852-26.645c-3.48-8.443-6.52-17.105-9.101-25.966 c-0.825-2.842-1.599-5.705-2.33-8.589c-1.557-6.154-2.894-12.413-4.002-18.735c-1.515-8.735-2.602-17.627-3.197-26.645 C0.199,267.786,0,261.914,0,256c0-3.03,0.052-6.05,0.157-9.049C2.894,168.135,41.253,98.388,99.641,53.29 C138.762,23.061,186.88,3.908,239.292,0.543h0.01C244.83,0.178,250.389,0,256,0c95.974,0,179.618,52.82,223.441,130.967 c4.942,8.819,9.383,17.951,13.27,27.376c3.479,8.422,6.52,17.063,9.091,25.913c3.688,12.622,6.416,25.642,8.119,38.996v0.01 c0.219,1.682,0.418,3.354,0.596,5.047C511.498,237.401,512,246.648,512,256z"></path><g><path style="fill:#797B89;" d="M512,256c0,2.738-0.042,5.475-0.125,8.192H371.827c-7.367,0-13.322-5.966-13.322-13.322 c0-3.678-1.494-7.011-3.908-9.425c-2.403-2.403-5.736-3.897-9.415-3.897h-1.317c-7.356,0-13.322-5.966-13.322-13.322 c0-3.678,1.494-7.011,3.908-9.425c2.403-2.403,5.736-3.897,9.415-3.897h24.43c7.356,0,13.322-5.966,13.322-13.322 c0-3.678-1.494-7.011-3.908-9.425c-2.403-2.403-5.736-3.897-9.415-3.897h-24.43c-7.356,0-13.322-5.966-13.322-13.322 c0-7.367,5.966-13.322,13.322-13.322h4.441c7.367,0,13.322-5.966,13.322-13.322c0-3.678,1.494-7.011,3.897-9.425 c2.414-2.403,5.747-3.897,9.425-3.897h104.49c4.942,8.819,9.383,17.951,13.27,27.376c-5.214,1.808-8.955,6.76-8.955,12.591 c0,3.678,1.494,7.011,3.897,9.425c2.414,2.403,5.747,3.897,9.425,3.897h4.723c3.688,12.622,6.416,25.642,8.119,38.996v0.01 c-0.031,0.313-0.042,0.637-0.042,0.961c0,1.421,0.219,2.8,0.637,4.086C511.498,237.401,512,246.648,512,256z"></path><path style="fill:#797B89;" d="M25.642,326.886H14.336c-1.473,0-2.884,0.24-4.2,0.679c-0.825-2.842-1.599-5.705-2.33-8.589 c-1.557-6.154-2.894-12.413-4.002-18.735h21.838c7.356,0,13.322,5.966,13.322,13.322c0,3.678-1.494,7.011-3.897,9.425 C32.653,325.392,29.32,326.886,25.642,326.886z"></path><path style="fill:#797B89;" d="M83.696,260.274c0,3.678-1.494,7.011-3.908,9.425c-2.403,2.403-5.736,3.897-9.415,3.897H0.606 C0.199,267.786,0,261.914,0,256c0-3.03,0.052-6.05,0.157-9.049h70.217C77.73,246.951,83.696,252.907,83.696,260.274z"></path></g><polyline style="fill:#F9EED7;" points="228.356,47.021 208.98,399.433 332.278,399.433 312.901,47.021 "></polyline><polygon style="fill:#E8DBC4;" points="257.818,399.433 208.98,399.433 220.756,185.229 222.48,153.882 223.744,130.894 225.468,99.547 227.736,58.274 252.865,57.752 "></polygon><polygon style="fill:#F9EED7;" points="483.788,352.413 360.49,352.413 372.266,138.209 373.99,106.862 375.254,83.874 376.978,52.527 379.246,11.254 379.862,0 464.415,0 467.299,52.527 469.023,83.874 470.288,106.862 472.012,138.209 "></polygon><polygon style="fill:#E8DBC4;" points="409.328,352.413 360.49,352.413 372.266,138.209 373.99,106.862 375.254,83.874 376.978,52.527 379.246,11.254 404.376,10.731 "></polygon><path style="fill:#FCF8F2;" d="M304.129,336.657L304.129,336.657c-6.916,0.356-12.81-4.961-13.167-11.877l-5.106-99.134 c-0.356-6.916,4.961-12.81,11.877-13.167l0,0c6.916-0.356,12.81,4.961,13.167,11.877l5.106,99.134 C316.363,330.405,311.045,336.3,304.129,336.657z"></path><path style="fill:#D6C8B0;" d="M501.624,328.38c-3.563,12.121-8.004,23.876-13.26,35.182c-5.622,12.152-12.184,23.792-19.592,34.826 c-6.04,9.017-12.643,17.627-19.749,25.778c-11.16,12.8-23.573,24.472-37.042,34.826c-20.219,15.569-42.82,28.17-67.166,37.177 c-6.823,2.529-13.782,4.775-20.867,6.708H194.351V328.38L501.624,328.38L501.624,328.38z"></path><g><path style="fill:#C69A6A;" d="M344.816,258.602V496.17c-6.823,2.529-13.782,4.775-20.867,6.708c-2.09,0.575-4.19,1.118-6.301,1.64 c-4.138,1.024-8.317,1.954-12.539,2.769c-8.641,1.682-17.45,2.926-26.384,3.709c-3.636,0.324-7.293,0.575-10.971,0.731 C263.858,511.906,259.939,512,256,512c-4.911,0-9.791-0.136-14.629-0.418c-4.211-0.23-8.391-0.564-12.539-1.003 c-8.85-0.94-17.565-2.32-26.122-4.138c-4.221-0.888-8.401-1.881-12.539-2.988c-8.997-2.382-17.805-5.245-26.384-8.568 c-3.699-1.421-7.356-2.936-10.971-4.535c-1.024-0.439-2.027-0.899-3.041-1.369c-2.706-1.223-5.371-2.508-8.025-3.835 c0,0,0,0-0.01,0c-3.365-1.672-6.677-3.427-9.958-5.256c-1.797-0.993-3.584-2.006-5.35-3.051c-4.263-2.508-8.443-5.13-12.539-7.868 c-8.673-5.799-16.959-12.11-24.837-18.881c-4.315-3.709-8.495-7.565-12.539-11.546c-1.076-1.055-2.142-2.121-3.197-3.197 c-2.393-2.435-4.744-4.921-7.032-7.461c-2.215-2.435-4.389-4.921-6.499-7.45c-3.166-3.772-6.228-7.638-9.174-11.598 c-0.167-0.209-0.324-0.428-0.481-0.648c-3.856-5.204-7.523-10.564-10.971-16.06c-2.424-3.845-4.754-7.774-6.969-11.755 c-1.829-3.281-3.584-6.593-5.266-9.958c-1.076-2.152-2.121-4.326-3.135-6.51c-1.923-4.117-3.73-8.307-5.433-12.539 c-4.211-10.47-7.743-21.285-10.553-32.392h36.979c4.89,0,9.697-1.275,13.939-3.699l119.651-68.368 c8.976-5.141,20.156,1.348,20.156,11.692v37.157c0,10.344,11.18,16.833,20.156,11.692l105.974-60.541 C333.636,241.768,344.816,248.257,344.816,258.602z"></path><path style="fill:#C69A6A;" d="M376.958,19.615h90.361c5.416,0,9.806-4.391,9.806-9.806l0,0c0-5.416-4.391-9.806-9.806-9.806 h-90.361c-5.416,0-9.806,4.391-9.806,9.806l0,0C367.151,15.224,371.542,19.615,376.958,19.615z"></path></g><path style="fill:#B58657;" d="M392.229,9.807c0-5.416,4.391-9.806,9.806-9.806h-25.078c-5.416,0-9.806,4.391-9.806,9.806 s4.391,9.806,9.806,9.806h25.078C396.619,19.615,392.229,15.224,392.229,9.807z"></path><g><polygon style="fill:#FF525D;" points="469.023,83.874 375.254,83.874 376.978,52.527 467.299,52.527 "></polygon><polygon style="fill:#FF525D;" points="472.012,138.209 372.266,138.209 373.99,106.862 470.288,106.862 "></polygon></g><g><polygon style="fill:#EF4152;" points="405.431,83.874 375.254,83.874 376.978,52.527 404.982,52.527 "></polygon><polygon style="fill:#EF4152;" points="406.225,138.209 372.266,138.209 373.99,106.862 405.765,106.862 "></polygon></g><path style="fill:#FCF8F2;" d="M455.639,289.636L455.639,289.636c-6.916,0.356-12.81-4.961-13.167-11.877l-5.106-99.134 c-0.356-6.916,4.961-12.81,11.877-13.167l0,0c6.916-0.356,12.81,4.961,13.167,11.877l5.106,99.134 C467.873,283.385,462.555,289.28,455.639,289.636z"></path><path style="fill:#C69A6A;" d="M225.448,66.635h90.361c5.416,0,9.806-4.391,9.806-9.806l0,0c0-5.416-4.391-9.806-9.806-9.806 h-90.361c-5.416,0-9.806,4.391-9.806,9.806l0,0C215.641,62.245,220.031,66.635,225.448,66.635z"></path><path style="fill:#B58657;" d="M240.719,56.828c0-5.416,4.391-9.806,9.806-9.806h-25.078c-5.416,0-9.806,4.391-9.806,9.806 s4.391,9.806,9.806,9.806h25.078C245.109,66.635,240.719,62.245,240.719,56.828z"></path><g><polygon style="fill:#FF525D;" points="317.513,130.894 223.744,130.894 225.468,99.547 315.789,99.547 "></polygon><polygon style="fill:#FF525D;" points="320.502,185.229 220.756,185.229 222.48,153.882 318.777,153.882 "></polygon></g><g><polygon style="fill:#EF4152;" points="253.921,130.894 223.744,130.894 225.468,99.547 253.471,99.547 "></polygon><polygon style="fill:#EF4152;" points="254.715,185.229 220.756,185.229 222.48,153.882 254.255,153.882 "></polygon></g><path style="fill:#B58657;" d="M317.649,359.57v144.948c-4.138,1.024-8.317,1.954-12.539,2.769 c-8.641,1.682-17.45,2.926-26.384,3.709c-3.636,0.324-7.293,0.575-10.971,0.731C263.858,511.906,259.939,512,256,512 c-4.911,0-9.791-0.136-14.629-0.418c-4.211-0.23-8.391-0.564-12.539-1.003V359.57c0-4.524,3.678-8.202,8.202-8.202h72.411 C313.971,351.368,317.649,355.046,317.649,359.57z"></path><path style="fill:#5C5E70;" d="M305.11,363.907v143.381c-8.641,1.682-17.45,2.926-26.384,3.709 c-3.636,0.324-7.293,0.575-10.971,0.731C263.858,511.906,259.939,512,256,512c-4.911,0-9.791-0.136-14.629-0.418V363.907H305.11z"></path><path style="fill:#B58657;" d="M278.727,420.436v47.856h26.384v11.598h-26.384v31.107c-3.636,0.324-7.293,0.575-10.971,0.731V479.89 h-26.384v-11.598h26.384v-47.856h-26.384v-11.598h26.384v-44.931h10.971v44.931h26.384v11.598H278.727z"></path><g><circle style="fill:#797B89;" cx="259.135" cy="433.392" r="5.747"></circle><circle style="fill:#797B89;" cx="296.511" cy="433.392" r="5.747"></circle><circle style="fill:#797B89;" cx="259.135" cy="374.878" r="5.747"></circle><circle style="fill:#797B89;" cx="296.511" cy="374.878" r="5.747"></circle><circle style="fill:#797B89;" cx="259.135" cy="490.339" r="5.747"></circle><circle style="fill:#797B89;" cx="296.511" cy="490.339" r="5.747"></circle></g><path style="fill:#B58657;" d="M202.71,359.57v146.871c-4.221-0.888-8.401-1.881-12.539-2.988 c-8.997-2.382-17.805-5.245-26.384-8.568c-3.699-1.421-7.356-2.936-10.971-4.535c-1.024-0.439-2.027-0.899-3.041-1.369 c-2.706-1.223-5.371-2.508-8.025-3.835c0,0-0.01-0.01-0.01,0c-3.365-1.672-6.677-3.427-9.958-5.256 c-1.797-0.993-3.584-2.006-5.35-3.051c-4.263-2.508-8.443-5.13-12.539-7.868V359.57c0-4.524,3.678-8.202,8.202-8.202h72.411 C199.032,351.368,202.71,355.046,202.71,359.57z"></path><path style="fill:#5C5E70;" d="M190.171,363.907v139.546c-8.997-2.382-17.805-5.245-26.384-8.568 c-3.699-1.421-7.356-2.936-10.971-4.535c-1.024-0.439-2.027-0.899-3.041-1.369c-2.706-1.223-5.371-2.508-8.025-3.835 c0,0-0.01-0.01-0.01,0c-3.365-1.672-6.677-3.427-9.958-5.256c-1.797-0.993-3.584-2.006-5.35-3.051V363.907H190.171z"></path><path style="fill:#B58657;" d="M163.788,420.436v47.856h26.384v11.598h-26.384v14.994c-3.699-1.421-7.356-2.936-10.971-4.535V479.89 h-21.034c-1.797-0.993-3.584-2.006-5.35-3.051v-8.547h26.384v-47.856h-26.384v-11.598h26.384v-44.931h10.971v44.931h26.384v11.598 H163.788z"></path><g><circle style="fill:#797B89;" cx="144.196" cy="433.392" r="5.747"></circle><circle style="fill:#797B89;" cx="181.572" cy="433.392" r="5.747"></circle><circle style="fill:#797B89;" cx="144.196" cy="374.878" r="5.747"></circle><circle style="fill:#797B89;" cx="181.572" cy="374.878" r="5.747"></circle><path style="fill:#797B89;" d="M149.776,488.981c-2.706-1.223-5.371-2.508-8.025-3.835c0.742-0.355,1.567-0.554,2.445-0.554 C146.902,484.592,149.17,486.463,149.776,488.981z"></path><circle style="fill:#797B89;" cx="181.572" cy="490.339" r="5.747"></circle></g><path style="fill:#B58657;" d="M89.057,359.57v90.52c-4.315-3.709-8.495-7.565-12.539-11.546c-1.076-1.055-2.142-2.121-3.197-3.197 c-2.393-2.435-4.744-4.921-7.032-7.461c-2.215-2.435-4.389-4.921-6.499-7.45c-3.166-3.772-6.228-7.638-9.174-11.598h-0.481v-0.648 c-3.856-5.204-7.523-10.564-10.971-16.06c-2.424-3.845-4.754-7.774-6.969-11.755c-1.829-3.281-3.584-6.593-5.266-9.958 c-1.076-2.152-2.121-4.326-3.135-6.51c-1.923-4.117-3.73-8.307-5.433-12.539h62.495C85.379,351.368,89.057,355.046,89.057,359.57z"></path><path style="fill:#5C5E70;" d="M76.518,363.907v74.637c-1.076-1.055-2.142-2.121-3.197-3.197c-2.393-2.435-4.744-4.921-7.032-7.461 c-2.215-2.435-4.389-4.921-6.499-7.45c-3.166-3.772-6.228-7.638-9.174-11.598h-0.481v-0.648c-3.856-5.204-7.523-10.564-10.971-16.06 c-2.424-3.845-4.754-7.774-6.969-11.755c-1.829-3.281-3.584-6.593-5.266-9.958c-1.076-2.152-2.121-4.326-3.135-6.51L76.518,363.907 L76.518,363.907z"></path><g><path style="fill:#B58657;" d="M39.163,363.907h10.971v44.283c-3.856-5.204-7.523-10.564-10.971-16.06V363.907z"></path><path style="fill:#B58657;" d="M76.518,408.837v11.598H59.789c-3.166-3.772-6.228-7.638-9.174-11.598H76.518z"></path></g><g><path style="fill:#797B89;" d="M73.665,433.392c0,0.69-0.125,1.348-0.345,1.954c-2.393-2.435-4.744-4.921-7.032-7.461 c0.522-0.157,1.066-0.24,1.63-0.24C71.095,427.645,73.665,430.216,73.665,433.392z"></path><path style="fill:#797B89;" d="M36.289,374.878c0,2.602-1.724,4.796-4.096,5.496c-1.829-3.281-3.584-6.593-5.266-9.958 c0.993-0.805,2.247-1.285,3.615-1.285C33.719,369.131,36.289,371.702,36.289,374.878z"></path><circle style="fill:#797B89;" cx="67.918" cy="374.878" r="5.747"></circle></g><g><path style="fill:#5C5E70;" d="M488.364,363.562c-5.622,12.152-12.184,23.792-19.592,34.826H366.759v-34.826H488.364z"></path><path style="fill:#5C5E70;" d="M449.024,424.166c-11.16,12.8-23.573,24.472-37.042,34.826h-45.223v-34.826H449.024z"></path></g><g><path style="fill:#797B89;" d="M275.341,210.819c0,7.356-5.966,13.322-13.322,13.322H135.45c-3.688,0-7.011-1.494-9.425-3.908 c-2.414-2.403-3.908-5.736-3.908-9.415c0-7.356-5.956-13.322-13.322-13.322H45.14c-3.678,0-7.011-1.494-9.425-3.908 c-2.403-2.403-3.897-5.736-3.897-9.415c0-7.356,5.966-13.322,13.322-13.322h42.935c3.678,0,7.011-1.494,9.415-3.908 c2.414-2.403,3.908-5.736,3.908-9.415c0-7.356,5.966-13.322,13.322-13.322h108.293l-1.463,26.645h-23.197 c-7.356,0-13.322,5.966-13.322,13.322c0,7.356,5.966,13.322,13.322,13.322h63.666c3.678,0,7.011,1.494,9.425,3.908 C273.847,203.807,275.341,207.141,275.341,210.819z"></path><path style="fill:#797B89;" d="M63.663,13.323v-0.001C63.663,5.964,69.628,0,76.985,0h158.543c7.358,0,13.322,5.964,13.322,13.322 v0.001c0,7.358-5.964,13.322-13.322,13.322H182.46c-7.358,0-13.322,5.964-13.322,13.322v0.001c0,7.358-5.964,13.322-13.322,13.322 H13.324C5.965,53.292,0,47.328,0,39.969l0,0c0-7.358,5.965-13.323,13.323-13.323h37.018C57.698,26.646,63.663,20.682,63.663,13.323 z"></path></g><g><circle style="fill:#FF6E7C;" cx="448.261" cy="69.245" r="8.882"></circle><circle style="fill:#FF6E7C;" cx="452.441" cy="121.49" r="8.882"></circle><circle style="fill:#FF6E7C;" cx="298.841" cy="115.221" r="8.882"></circle><circle style="fill:#FF6E7C;" cx="303.02" cy="167.466" r="8.882"></circle></g><g><path style="fill:#797B89;" d="M439.554,385.849h-48.762c-3.655,0-6.617-2.963-6.617-6.617l0,0c0-3.655,2.963-6.617,6.617-6.617 h48.762c3.655,0,6.617,2.963,6.617,6.617l0,0C446.171,382.886,443.208,385.849,439.554,385.849z"></path><path style="fill:#797B89;" d="M411.69,443.319h-20.898c-3.655,0-6.617-2.963-6.617-6.617l0,0c0-3.655,2.963-6.617,6.617-6.617 h20.898c3.655,0,6.617,2.963,6.617,6.617l0,0C418.307,440.355,415.345,443.319,411.69,443.319z"></path></g></svg>