<!-- icon666.com - MILLIONS OF FREE VECTOR ICONS --><svg id="Layer_1" enable-background="new 0 0 512 512" viewBox="0 0 512 512" xmlns="http://www.w3.org/2000/svg"><g clip-rule="evenodd" fill-rule="evenodd"><g><path d="m26.99 294.029h291.516v86.621h-291.516z" fill="#fdcd56"></path><path d="m296.296 162.282h116.567c7.678 0 14.277 3.589 18.45 10.034l45.815 70.754c2.407 3.717 3.531 7.519 3.531 11.947v50.994l-2.447 14.37 2.447 16.471v43.798h-184.363z" fill="#fdcd56"></path><path d="m335.544 191.71v56.812h108.42l-36.788-56.812z" fill="#c7e0ec"></path><path d="m485.01 361.185h-458.02c-6.052 0-10.99 4.938-10.99 10.99v16.95c0 6.052 4.937 10.99 10.99 10.99h458.02c6.053 0 10.99-4.937 10.99-10.99v-16.95c0-6.053-4.939-10.99-10.99-10.99z" fill="#636c77"></path><path d="m380.994 331.18c27.321 0 49.47 22.148 49.47 49.47 0 27.321-22.148 49.47-49.47 49.47s-49.47-22.148-49.47-49.47 22.148-49.47 49.47-49.47zm-254.338 0c27.321 0 49.47 22.148 49.47 49.47 0 27.321-22.149 49.47-49.47 49.47-27.322 0-49.47-22.148-49.47-49.47s22.149-49.47 49.47-49.47z" fill="#424852"></path><ellipse cx="380.994" cy="380.65" fill="#e4e8eb" rx="16.779" ry="16.779" transform="matrix(.707 -.707 .707 .707 -157.57 380.893)"></ellipse><circle cx="126.656" cy="380.65" fill="#e4e8eb" r="16.779"></circle><path d="m31.99 81.88h269.305c2.754 0 5 2.246 5 5v217.15h-279.305v-217.15c0-2.754 2.246-5 5-5z" fill="#937661"></path><path d="m480.659 306.011h-7.949c-8.481 0-15.42 6.939-15.42 15.42 0 8.482 6.939 15.421 15.42 15.421h7.949z" fill="#f4f6f8"></path></g><path d="m365.655 275.603c0 3.863-3.136 6.997-7.002 6.997h-23.108c-3.867 0-7.001-3.134-7.001-6.997 0-3.868 3.134-7.002 7.001-7.002h23.108c3.866 0 7.002 3.134 7.002 7.002zm-238.999 114.824c-5.393 0-9.778-4.385-9.778-9.778s4.385-9.778 9.778-9.778c5.391 0 9.777 4.385 9.777 9.778s-4.385 9.778-9.777 9.778zm0-33.555c-13.113 0-23.779 10.663-23.779 23.777 0 13.11 10.667 23.777 23.779 23.777 13.111 0 23.777-10.667 23.777-23.777.001-13.114-10.665-23.777-23.777-23.777zm254.337 33.555c-5.393 0-9.778-4.385-9.778-9.778s4.385-9.778 9.778-9.778c5.391 0 9.779 4.385 9.779 9.778s-4.387 9.778-9.779 9.778zm0-33.555c-13.111 0-23.777 10.663-23.777 23.777 0 13.11 10.667 23.777 23.777 23.777 13.111 0 23.78-10.667 23.78-23.777 0-13.114-10.668-23.777-23.78-23.777zm108.008 32.252c0 2.197-1.793 3.99-3.99 3.99h-48.951c.908-4.014 1.404-8.183 1.404-12.465s-.496-8.451-1.404-12.465h48.951c2.197 0 3.99 1.788 3.99 3.99zm-108.008 33.997c23.419 0 42.471-19.053 42.471-42.472s-19.052-42.472-42.471-42.472-42.471 19.053-42.471 42.472 19.052 42.472 42.471 42.472zm-199.27-30.007c.909-4.014 1.404-8.183 1.404-12.465s-.495-8.451-1.404-12.465h144.205c-.908 4.014-1.404 8.183-1.404 12.465s.496 8.451 1.404 12.465zm-55.067 30.007c23.417 0 42.469-19.053 42.469-42.472s-19.052-42.472-42.469-42.472c-23.419 0-42.471 19.053-42.471 42.472s19.053 42.472 42.471 42.472zm-99.666-30.007c-2.2 0-3.991-1.793-3.991-3.99v-16.949c0-2.202 1.79-3.99 3.991-3.99h44.599c-.908 4.014-1.403 8.183-1.403 12.465s.494 8.451 1.403 12.465h-44.599zm272.306-304.235v208.149h-265.305v-208.149zm-172.64 235.299c-21.579 0-40.361 12.173-49.864 30.007h-42.801v-43.159h265.305v43.159h-122.776c-9.502-17.834-28.284-30.007-49.864-30.007zm286.206-154.896h-99.568v184.904h17.835c9.503-17.834 28.285-30.007 49.864-30.007s40.361 12.173 49.864 30.007h42.802v-10.333h-.949c-12.363 0-22.421-10.061-22.421-22.422 0-12.362 10.058-22.417 22.421-22.417h.949v-43.997c0-3.059-.741-5.571-2.407-8.14l-45.814-70.757c-2.896-4.476-7.245-6.838-12.576-6.838zm60.797 160.571h-.949c-4.643 0-8.421-3.779-8.421-8.423 0-4.645 3.778-8.418 8.421-8.418h.949zm14.001 24.549v-99.385c0-5.764-1.525-10.917-4.654-15.754l-45.816-70.753c-5.445-8.404-14.311-13.227-24.327-13.227h-99.568v-73.406c0-3.863-3.134-6.997-7-6.997h-279.305c-3.866 0-7 3.134-7 6.997v273.725c-6.452 2.734-10.99 9.133-10.99 16.572v16.949c0 9.919 8.069 17.989 17.99 17.989h49.801c9.505 17.834 28.287 30.007 49.866 30.007s40.361-12.173 49.864-30.007h154.609c9.503 17.834 28.285 30.007 49.864 30.007s40.361-12.173 49.864-30.007h54.153c9.919 0 17.989-8.07 17.989-17.989v-16.949c0-9.015-6.677-16.483-15.34-17.772zm-145.116-155.692h60.826l27.722 42.811h-88.548zm-6.999 56.81c-3.867 0-7.001-3.134-7.001-6.997v-56.814c0-3.863 3.134-7.002 7.001-7.002h71.632c2.373 0 4.584 1.205 5.875 3.195l36.787 56.814c1.393 2.155 1.5 4.894.274 7.148s-3.585 3.656-6.149 3.656z"></path></g></svg>