<!-- icon666.com - MILLIONS OF FREE VECTOR ICONS --><svg version="1.1" id="Capa_1" xmlns="http://www.w3.org/2000/svg" xmlns:xlink="http://www.w3.org/1999/xlink" x="0px" y="0px" viewBox="0 0 512.001 512.001" style="enable-background:new 0 0 512.001 512.001;" xml:space="preserve"><path style="fill:#FFDE56;" d="M286.791,62.004c0-22.79-12.389-42.674-30.79-53.323c-18.402,10.649-30.791,30.533-30.791,53.323 s12.389,42.674,30.791,53.323C274.401,104.677,286.791,84.795,286.791,62.004z"></path><path style="fill:#FED322;" d="M256,8.681c-18.402,10.649-30.791,30.533-30.791,53.323s12.389,42.674,30.791,53.323V8.681z"></path><path style="fill:#FFDE56;" d="M236.06,101.939c-16.115-16.115-38.936-21.415-59.477-15.932 c-5.481,20.542-0.182,43.362,15.932,59.478c16.115,16.115,38.936,21.414,59.477,15.932 C257.473,140.875,252.174,118.055,236.06,101.939z"></path><path style="fill:#FED322;" d="M176.582,86.007c-5.481,20.542-0.182,43.362,15.932,59.478 c16.115,16.115,38.936,21.414,59.477,15.932L176.582,86.007z"></path><path style="fill:#FFDE56;" d="M319.485,145.485c16.115-16.115,21.415-38.936,15.932-59.477 c-20.542-5.481-43.362-0.182-59.478,15.932c-16.115,16.115-21.414,38.936-15.932,59.477 C280.549,166.898,303.369,161.599,319.485,145.485z"></path><path style="fill:#FED322;" d="M335.417,86.007c-20.542-5.481-43.362-0.182-59.478,15.932 c-16.115,16.115-21.414,38.936-15.932,59.477L335.417,86.007z"></path><path style="fill:#FFDE56;" d="M236.06,176.519c-16.115-16.115-38.936-21.415-59.477-15.932 c-5.481,20.542-0.182,43.362,15.932,59.478c16.115,16.115,38.936,21.414,59.477,15.932 C257.473,215.454,252.174,192.634,236.06,176.519z"></path><path style="fill:#FED322;" d="M176.582,160.587c-5.481,20.542-0.182,43.362,15.932,59.478 c16.115,16.115,38.936,21.414,59.477,15.932L176.582,160.587z"></path><path style="fill:#FFDE56;" d="M319.485,220.064c16.115-16.115,21.415-38.936,15.932-59.477 c-20.542-5.481-43.362-0.182-59.478,15.932c-16.115,16.115-21.414,38.936-15.932,59.477 C280.549,241.479,303.369,236.179,319.485,220.064z"></path><path style="fill:#FED322;" d="M335.417,160.587c-20.542-5.481-43.362-0.182-59.478,15.932 c-16.115,16.115-21.414,38.936-15.932,59.477L335.417,160.587z"></path><path style="fill:#FFDE56;" d="M236.06,249.204c-16.115-16.115-38.936-21.415-59.477-15.932 c-5.481,20.542-0.182,43.362,15.932,59.478c16.115,16.115,38.936,21.414,59.477,15.932 C257.473,288.14,252.174,265.32,236.06,249.204z"></path><path style="fill:#FED322;" d="M176.582,233.272c-5.481,20.542-0.182,43.362,15.932,59.478 c16.115,16.115,38.936,21.414,59.477,15.932L176.582,233.272z"></path><path style="fill:#FFDE56;" d="M319.485,292.75c16.115-16.115,21.415-38.936,15.932-59.477 c-20.542-5.481-43.362-0.182-59.478,15.932c-16.115,16.115-21.414,38.936-15.932,59.477 C280.549,314.163,303.369,308.864,319.485,292.75z"></path><path style="fill:#FED322;" d="M335.417,233.272c-20.542-5.481-43.362-0.182-59.478,15.932 c-16.115,16.115-21.414,38.936-15.932,59.477L335.417,233.272z"></path><path style="fill:#FFDE56;" d="M236.06,323.784c-16.115-16.115-38.936-21.415-59.477-15.932 c-5.481,20.542-0.182,43.362,15.932,59.478c16.115,16.115,38.936,21.414,59.477,15.932 C257.473,362.719,252.174,339.899,236.06,323.784z"></path><path style="fill:#FED322;" d="M176.582,307.852c-5.481,20.542-0.182,43.362,15.932,59.478 c16.115,16.115,38.936,21.414,59.477,15.932L176.582,307.852z"></path><path style="fill:#FFDE56;" d="M319.485,367.329c16.115-16.115,21.415-38.936,15.932-59.478 c-20.542-5.481-43.362-0.182-59.478,15.932c-16.115,16.115-21.414,38.936-15.932,59.477 C280.549,388.743,303.369,383.444,319.485,367.329z"></path><path style="fill:#FED322;" d="M335.417,307.852c-20.542-5.481-43.362-0.182-59.478,15.932 c-16.115,16.115-21.414,38.936-15.932,59.477L335.417,307.852z"></path><path style="fill:#FFDE56;" d="M236.06,398.364c-16.115-16.115-38.936-21.415-59.477-15.932 c-5.481,20.542-0.182,43.362,15.932,59.478c16.115,16.115,38.936,21.414,59.477,15.932 C257.473,437.299,252.174,414.479,236.06,398.364z"></path><path style="fill:#FED322;" d="M176.582,382.432c-5.481,20.542-0.182,43.362,15.932,59.478 c16.115,16.115,38.936,21.414,59.477,15.932L176.582,382.432z"></path><path style="fill:#FFDE56;" d="M319.485,441.909c16.115-16.115,21.415-38.936,15.932-59.477 c-20.542-5.481-43.362-0.182-59.478,15.932c-16.115,16.115-21.414,38.936-15.932,59.477 C280.549,463.323,303.369,458.024,319.485,441.909z"></path><path style="fill:#FED322;" d="M335.417,382.432c-20.542-5.481-43.362-0.182-59.478,15.932 c-16.115,16.115-21.414,38.936-15.932,59.477L335.417,382.432z"></path><path d="M342.677,84.07l-1.121-4.202l-4.202-1.121c-5.828-1.555-11.848-2.343-17.892-2.343c-9.914,0-19.499,2.091-28.278,6.032 c2.037-6.538,3.12-13.416,3.12-20.432c0-24.572-13.235-47.496-34.541-59.825L256,0l-3.764,2.178 c-21.305,12.329-34.541,35.254-34.541,59.825c0,7.014,1.083,13.893,3.12,20.432c-8.779-3.941-18.364-6.032-28.278-6.032 c-6.043,0-12.064,0.788-17.892,2.343l-4.202,1.121l-1.121,4.202c-6.346,23.784,0.504,49.352,17.88,66.727 c0.126,0.126,0.258,0.242,0.386,0.368c-4.372,0.313-8.708,1.032-12.943,2.162l-4.202,1.121l-1.121,4.202 c-6.18,23.161,0.158,48.01,16.539,65.341c-3.787,0.366-7.54,1.04-11.216,2.021l-4.202,1.121l-1.121,4.202 c-6.346,23.784,0.504,49.352,17.88,66.728c0.126,0.126,0.258,0.242,0.386,0.367c-4.372,0.313-8.708,1.032-12.942,2.162l-4.202,1.121 l-1.121,4.202c-6.346,23.784,0.504,49.352,17.88,66.728c0.126,0.126,0.258,0.242,0.386,0.367c-4.372,0.313-8.709,1.032-12.942,2.162 l-4.202,1.121l-1.121,4.202c-6.346,23.784,0.504,49.353,17.88,66.728c13.041,13.042,30.385,20.223,48.836,20.223 c4.18,0,8.347-0.386,12.448-1.133v45.688h15.028v-45.689c4.101,0.746,8.268,1.133,12.448,1.133c0.001,0,0.001,0,0.002,0 c18.45,0,35.793-7.182,48.833-20.223c17.375-17.375,24.226-42.943,17.88-66.728l-1.121-4.202l-4.202-1.121 c-4.234-1.13-8.57-1.85-12.941-2.162c0.126-0.125,0.259-0.241,0.386-0.367c17.375-17.375,24.226-42.943,17.88-66.728l-1.121-4.202 l-4.202-1.121c-4.234-1.13-8.57-1.85-12.941-2.162c0.126-0.125,0.259-0.241,0.386-0.367c17.375-17.375,24.226-42.943,17.88-66.728 l-1.121-4.202l-4.202-1.121c-3.676-0.981-7.429-1.655-11.216-2.021c16.381-17.332,22.719-42.181,16.539-65.341l-1.121-4.202 l-4.202-1.121c-4.234-1.13-8.57-1.849-12.943-2.162c0.127-0.125,0.259-0.241,0.386-0.368 C342.173,133.422,349.024,107.853,342.677,84.07z M182.872,92.296c3.184-0.574,6.42-0.865,9.664-0.865 c14.437,0,28.007,5.619,38.209,15.822c12.542,12.542,18.074,30.543,14.956,47.875c-3.184,0.574-6.42,0.865-9.664,0.865 c-14.437,0-28.007-5.619-38.209-15.822C185.288,127.63,179.755,109.628,182.872,92.296z M182.872,166.876 c3.184-0.574,6.42-0.865,9.664-0.865c14.437,0,28.007,5.619,38.209,15.822c12.542,12.542,18.074,30.543,14.956,47.875 c-3.184,0.574-6.42,0.865-9.664,0.865c-14.437,0-28.007-5.619-38.209-15.822C185.288,202.209,179.755,184.207,182.872,166.876z M182.872,239.561c3.184-0.574,6.42-0.865,9.664-0.865c14.437,0,28.007,5.619,38.209,15.822 c12.542,12.542,18.074,30.543,14.956,47.875c-3.184,0.575-6.42,0.865-9.665,0.865c-14.436,0-28.006-5.619-38.208-15.821 C185.288,274.895,179.755,256.893,182.872,239.561z M182.872,314.14c3.184-0.574,6.42-0.865,9.664-0.865 c14.437,0,28.007,5.619,38.209,15.822c12.542,12.542,18.074,30.543,14.956,47.875c-3.184,0.575-6.42,0.865-9.665,0.865 c-14.436,0-28.006-5.619-38.208-15.821C185.288,349.475,179.755,331.473,182.872,314.14z M245.702,451.552 c-3.184,0.574-6.42,0.865-9.664,0.865c-14.437,0-28.007-5.619-38.209-15.822c-12.542-12.542-18.074-30.543-14.956-47.876 c3.184-0.574,6.42-0.865,9.664-0.865c14.437,0,28.007,5.619,38.209,15.822C243.287,416.219,248.82,434.221,245.702,451.552z M248.485,401.417c-2.128-2.951-4.499-5.753-7.112-8.366c-0.126-0.126-0.258-0.242-0.386-0.368c2.516-0.179,5.019-0.5,7.498-0.951 V401.417z M248.485,326.837c-2.128-2.951-4.499-5.753-7.112-8.366c-0.126-0.126-0.258-0.242-0.386-0.368 c2.516-0.179,5.019-0.5,7.498-0.951V326.837z M248.485,252.258c-1.757-2.437-3.683-4.769-5.772-6.98 c1.936-0.186,3.86-0.462,5.772-0.811V252.258z M248.485,179.572c-2.128-2.951-4.499-5.752-7.112-8.366 c-0.126-0.126-0.258-0.242-0.386-0.368c2.516-0.179,5.019-0.5,7.498-0.951V179.572z M256,106.432 c-14.46-10.051-23.276-26.692-23.276-44.428S241.54,27.626,256,17.576c14.46,10.051,23.276,26.692,23.276,44.427 S270.46,96.382,256,106.432z M271.013,170.839c-0.127,0.125-0.259,0.241-0.386,0.368c-2.614,2.614-4.984,5.415-7.112,8.366v-9.685 C265.993,170.339,268.496,170.658,271.013,170.839z M269.287,245.278c-2.09,2.211-4.015,4.544-5.772,6.98v-7.791 C265.425,244.815,267.351,245.09,269.287,245.278z M271.012,318.104c-0.127,0.125-0.259,0.241-0.386,0.368 c-2.614,2.614-4.984,5.415-7.112,8.366v-9.684C265.993,317.604,268.496,317.924,271.012,318.104z M263.514,391.732 c2.48,0.452,4.982,0.771,7.498,0.951c-0.127,0.125-0.259,0.241-0.386,0.368c-2.614,2.614-4.984,5.415-7.112,8.366V391.732z M329.127,388.72c3.118,17.332-2.415,35.334-14.956,47.876c-10.203,10.203-23.772,15.822-38.208,15.822 c-3.245,0-6.481-0.291-9.665-0.865c-3.118-17.332,2.415-35.334,14.956-47.876c10.202-10.202,23.772-15.822,38.209-15.822 C322.707,387.856,325.943,388.146,329.127,388.72z M329.127,314.14c3.118,17.332-2.415,35.334-14.956,47.876 c-10.202,10.202-23.77,15.821-38.205,15.821h-0.002c-3.246,0-6.482-0.291-9.666-0.865c-3.118-17.332,2.415-35.334,14.956-47.875 c10.202-10.202,23.772-15.822,38.209-15.822C322.707,313.277,325.943,313.566,329.127,314.14z M329.127,239.561 c3.118,17.332-2.415,35.334-14.956,47.876c-10.202,10.202-23.77,15.821-38.205,15.821h-0.002c-3.246,0-6.482-0.291-9.666-0.865 c-3.118-17.332,2.415-35.334,14.956-47.875c10.202-10.202,23.772-15.822,38.209-15.822 C322.707,238.696,325.943,238.987,329.127,239.561z M329.127,166.876c3.118,17.332-2.415,35.334-14.956,47.875 c-10.203,10.203-23.772,15.822-38.208,15.822c-3.245,0-6.481-0.291-9.665-0.865c-3.118-17.332,2.415-35.334,14.956-47.875 c10.202-10.202,23.772-15.822,38.209-15.822C322.707,166.012,325.943,166.301,329.127,166.876z M314.171,140.171 c-10.203,10.203-23.772,15.822-38.208,15.822c-3.245,0-6.481-0.291-9.665-0.865c-3.118-17.332,2.415-35.334,14.956-47.875 c10.202-10.202,23.772-15.822,38.209-15.822c3.245,0,6.48,0.291,9.664,0.865C332.245,109.628,326.713,127.63,314.171,140.171z"></path></svg>